<?xml version="1.0" encoding="UTF-8" standalone="no"?>
<svg
   xmlns:dc="http://purl.org/dc/elements/1.1/"
   xmlns:cc="http://creativecommons.org/ns#"
   xmlns:rdf="http://www.w3.org/1999/02/22-rdf-syntax-ns#"
   xmlns:svg="http://www.w3.org/2000/svg"
   xmlns="http://www.w3.org/2000/svg"
   xmlns:sodipodi="http://sodipodi.sourceforge.net/DTD/sodipodi-0.dtd"
   xmlns:inkscape="http://www.inkscape.org/namespaces/inkscape"
   width="40"
   height="40"
   viewBox="0 0 40 40"
   version="1.1"
   id="svg4"
   sodipodi:docname="zoomin.svg"
   style="fill:#333333"
   inkscape:version="0.92.4 (5da689c313, 2019-01-14)">
  <metadata
     id="metadata10">
    <rdf:RDF>
      <cc:Work
         rdf:about="">
        <dc:format>image/svg+xml</dc:format>
        <dc:type
           rdf:resource="http://purl.org/dc/dcmitype/StillImage" />
        <dc:title></dc:title>
      </cc:Work>
    </rdf:RDF>
  </metadata>
  <defs
     id="defs8" />
  <sodipodi:namedview
     pagecolor="#ffffff"
     bordercolor="#666666"
     borderopacity="1"
     objecttolerance="10"
     gridtolerance="10"
     guidetolerance="10"
     inkscape:pageopacity="0"
     inkscape:pageshadow="2"
     inkscape:window-width="1680"
     inkscape:window-height="987"
     id="namedview6"
     showgrid="false"
     inkscape:zoom="8.137931"
     inkscape:cx="14.5"
     inkscape:cy="14.5"
     inkscape:window-x="-8"
     inkscape:window-y="18"
     inkscape:window-maximized="1"
     inkscape:current-layer="svg4" />
  <rect
     style="fill:#000000;fill-opacity:1;stroke:#ffffff;stroke-opacity:0.94117647"
     id="rect817"
     width="39.690681"
     height="40.182209"
     x="0.24576281"
     y="-0.1822035" />
  <path
     d="m 20.029661,14.09322 c -0.75,0 -1.5,0.75 -1.5,1.5 v 3 h -3 c -0.75,0 -1.5,0.75 -1.5,1.5 0,0.75 0.75,1.5 1.5,1.5 h 3 v 3 c 0,0.75 0.75,1.5 1.5,1.5 0.75,0 1.5,-0.75 1.5,-1.5 v -3 h 3 c 0.75,0 1.5,-0.75 1.5,-1.5 0,-0.75 -0.75,-1.5 -1.5,-1.5 h -3 v -3 c 0,-0.75 -0.75,-1.5 -1.5,-1.5 z"
     id="path2"
     style="fill:#ffffff;fill-opacity:1"
     inkscape:connector-curvature="0" />
</svg>
